<mxfile host="Electron" agent="Mozilla/5.0 (Macintosh; Intel Mac OS X 10_15_7) AppleWebKit/537.36 (KHTML, like Gecko) draw.io/27.0.5 Chrome/134.0.6998.205 Electron/35.3.0 Safari/537.36" version="27.0.5">
  <diagram name="Page-1" id="4jDAiWrbi4xeAZUUKxI4">
    <mxGraphModel dx="1018" dy="672" grid="1" gridSize="10" guides="1" tooltips="1" connect="1" arrows="1" fold="1" page="1" pageScale="1" pageWidth="827" pageHeight="1169" math="0" shadow="0">
      <root>
        <mxCell id="0" />
        <mxCell id="1" parent="0" />
        <mxCell id="rojXiDfV7D0yfYaVRPzX-5" value="" style="image;sketch=0;aspect=fixed;html=1;points=[];align=center;fontSize=12;image=img/lib/mscae/Container_Registries.svg;" parent="1" vertex="1">
          <mxGeometry x="640" y="200" width="81.4" height="70" as="geometry" />
        </mxCell>
        <mxCell id="rojXiDfV7D0yfYaVRPzX-9" value="" style="image;sketch=0;aspect=fixed;html=1;points=[];align=center;fontSize=12;image=img/lib/mscae/CustomDomain.svg;" parent="1" vertex="1">
          <mxGeometry x="160" y="214" width="50" height="42" as="geometry" />
        </mxCell>
        <mxCell id="rojXiDfV7D0yfYaVRPzX-10" value="MAUI Client" style="image;sketch=0;aspect=fixed;html=1;points=[];align=center;fontSize=12;image=img/lib/mscae/Managed_Desktop.svg;" parent="1" vertex="1">
          <mxGeometry x="669.99" y="390" width="41.67" height="30" as="geometry" />
        </mxCell>
        <mxCell id="rojXiDfV7D0yfYaVRPzX-11" value="" style="endArrow=classic;html=1;rounded=0;exitX=0.94;exitY=0.571;exitDx=0;exitDy=0;exitPerimeter=0;entryX=0;entryY=0.529;entryDx=0;entryDy=0;entryPerimeter=0;" parent="1" source="rojXiDfV7D0yfYaVRPzX-9" target="rojXiDfV7D0yfYaVRPzX-3" edge="1">
          <mxGeometry width="50" height="50" relative="1" as="geometry">
            <mxPoint x="390" y="340" as="sourcePoint" />
            <mxPoint x="410" y="244" as="targetPoint" />
          </mxGeometry>
        </mxCell>
        <mxCell id="rojXiDfV7D0yfYaVRPzX-12" value="" style="endArrow=classic;html=1;rounded=0;entryX=0.602;entryY=1.014;entryDx=0;entryDy=0;entryPerimeter=0;" parent="1" source="rojXiDfV7D0yfYaVRPzX-10" target="rojXiDfV7D0yfYaVRPzX-5" edge="1">
          <mxGeometry width="50" height="50" relative="1" as="geometry">
            <mxPoint x="390" y="340" as="sourcePoint" />
            <mxPoint x="181" y="260" as="targetPoint" />
          </mxGeometry>
        </mxCell>
        <mxCell id="rojXiDfV7D0yfYaVRPzX-13" value="Frontend-API: Quizfragen bereitstellen, Antworten empfangen" style="text;html=1;align=center;verticalAlign=middle;whiteSpace=wrap;rounded=0;" parent="1" vertex="1">
          <mxGeometry x="360.7" y="90" width="200" height="30" as="geometry" />
        </mxCell>
        <mxCell id="rojXiDfV7D0yfYaVRPzX-14" value="" style="group" parent="1" vertex="1" connectable="0">
          <mxGeometry x="414" y="360" width="128" height="70" as="geometry" />
        </mxCell>
        <mxCell id="rojXiDfV7D0yfYaVRPzX-6" value="Postgres Datenbank" style="image;sketch=0;aspect=fixed;html=1;points=[];align=center;fontSize=12;image=img/lib/mscae/Container_Registries.svg;" parent="rojXiDfV7D0yfYaVRPzX-14" vertex="1">
          <mxGeometry width="81.4" height="70" as="geometry" />
        </mxCell>
        <mxCell id="rojXiDfV7D0yfYaVRPzX-7" value="" style="image;sketch=0;aspect=fixed;html=1;points=[];align=center;fontSize=12;image=img/lib/mscae/Database_General.svg;" parent="rojXiDfV7D0yfYaVRPzX-14" vertex="1">
          <mxGeometry x="90" y="20" width="38" height="50" as="geometry" />
        </mxCell>
        <mxCell id="rojXiDfV7D0yfYaVRPzX-18" value="" style="endArrow=classic;startArrow=classic;html=1;rounded=0;entryX=-0.037;entryY=0.557;entryDx=0;entryDy=0;entryPerimeter=0;exitX=0.983;exitY=0.557;exitDx=0;exitDy=0;exitPerimeter=0;" parent="1" source="rojXiDfV7D0yfYaVRPzX-3" target="rojXiDfV7D0yfYaVRPzX-5" edge="1">
          <mxGeometry width="50" height="50" relative="1" as="geometry">
            <mxPoint x="390" y="340" as="sourcePoint" />
            <mxPoint x="440" y="290" as="targetPoint" />
          </mxGeometry>
        </mxCell>
        <mxCell id="rojXiDfV7D0yfYaVRPzX-19" value="REST API" style="edgeLabel;html=1;align=center;verticalAlign=middle;resizable=0;points=[];" parent="rojXiDfV7D0yfYaVRPzX-18" vertex="1" connectable="0">
          <mxGeometry x="0.0803" y="-1" relative="1" as="geometry">
            <mxPoint as="offset" />
          </mxGeometry>
        </mxCell>
        <mxCell id="rojXiDfV7D0yfYaVRPzX-20" value="&lt;span style=&quot;text-wrap-mode: nowrap; background-color: rgb(255, 255, 255);&quot;&gt;ASP.NET&lt;/span&gt;&lt;br style=&quot;text-wrap-mode: nowrap;&quot;&gt;&lt;span style=&quot;text-wrap-mode: nowrap; background-color: rgb(255, 255, 255);&quot;&gt;Backend&lt;/span&gt;" style="text;html=1;align=center;verticalAlign=middle;whiteSpace=wrap;rounded=0;" parent="1" vertex="1">
          <mxGeometry x="640" y="160" width="60" height="30" as="geometry" />
        </mxCell>
        <mxCell id="rojXiDfV7D0yfYaVRPzX-3" value="" style="image;sketch=0;aspect=fixed;html=1;points=[];align=center;fontSize=12;image=img/lib/mscae/Container_Registries.svg;" parent="1" vertex="1">
          <mxGeometry x="420" y="200" width="81.4" height="70" as="geometry" />
        </mxCell>
        <mxCell id="rojXiDfV7D0yfYaVRPzX-16" value="&lt;br class=&quot;Apple-interchange-newline&quot;&gt;&lt;span style=&quot;text-wrap-mode: nowrap; background-color: rgb(255, 255, 255);&quot;&gt;Java Spring Boot&lt;/span&gt;&lt;br style=&quot;text-wrap-mode: nowrap;&quot;&gt;&lt;span style=&quot;text-wrap-mode: nowrap; background-color: rgb(255, 255, 255);&quot;&gt;Backend&lt;/span&gt;" style="text;html=1;align=center;verticalAlign=middle;whiteSpace=wrap;rounded=0;" parent="1" vertex="1">
          <mxGeometry x="430.7" y="150" width="60" height="30" as="geometry" />
        </mxCell>
        <mxCell id="rojXiDfV7D0yfYaVRPzX-23" value="Scoring, Analyse, Leaderboard" style="text;whiteSpace=wrap;html=1;" parent="1" vertex="1">
          <mxGeometry x="590.7" y="90" width="180" height="40" as="geometry" />
        </mxCell>
        <mxCell id="rojXiDfV7D0yfYaVRPzX-15" value="" style="endArrow=classic;startArrow=classic;html=1;rounded=0;exitX=0.504;exitY=0.043;exitDx=0;exitDy=0;exitPerimeter=0;" parent="1" source="rojXiDfV7D0yfYaVRPzX-6" edge="1">
          <mxGeometry width="50" height="50" relative="1" as="geometry">
            <mxPoint x="390" y="340" as="sourcePoint" />
            <mxPoint x="455" y="270" as="targetPoint" />
          </mxGeometry>
        </mxCell>
        <mxCell id="rojXiDfV7D0yfYaVRPzX-24" value="UI fÃ¼r Spieler: Fragen beantworten,&amp;nbsp;&lt;div&gt;Punkte sehen&lt;/div&gt;" style="text;whiteSpace=wrap;html=1;" parent="1" vertex="1">
          <mxGeometry x="100" y="90" width="199.3" height="40" as="geometry" />
        </mxCell>
        <mxCell id="rojXiDfV7D0yfYaVRPzX-25" value="&lt;div&gt;&lt;br&gt;&lt;/div&gt;&lt;div&gt;pro Backend ein Schema&lt;/div&gt;Fragen/Antworten&lt;br&gt;Highscore&lt;div&gt;&lt;br/&gt;&lt;/div&gt;" style="text;html=1;align=center;verticalAlign=middle;whiteSpace=wrap;rounded=0;" parent="1" vertex="1">
          <mxGeometry x="360.7" y="480" width="200" height="30" as="geometry" />
        </mxCell>
        <mxCell id="rojXiDfV7D0yfYaVRPzX-26" value="&lt;span style=&quot;text-wrap-mode: nowrap; background-color: rgb(255, 255, 255);&quot;&gt;HTML/CSS/Javascript&lt;/span&gt;&lt;br style=&quot;text-wrap-mode: nowrap;&quot;&gt;&lt;span style=&quot;text-wrap-mode: nowrap; background-color: rgb(255, 255, 255);&quot;&gt;Frontend&lt;/span&gt;" style="text;html=1;align=center;verticalAlign=middle;whiteSpace=wrap;rounded=0;" parent="1" vertex="1">
          <mxGeometry x="155" y="160" width="60" height="30" as="geometry" />
        </mxCell>
        <mxCell id="Y0TVnmoUkEm3mBKcdlKX-1" value="Zeigt das Leaderboard an" style="text;whiteSpace=wrap;html=1;" parent="1" vertex="1">
          <mxGeometry x="610" y="470" width="180" height="40" as="geometry" />
        </mxCell>
        <mxCell id="Y0TVnmoUkEm3mBKcdlKX-2" value="" style="endArrow=classic;startArrow=classic;html=1;rounded=0;" parent="1" source="rojXiDfV7D0yfYaVRPzX-6" target="rojXiDfV7D0yfYaVRPzX-5" edge="1">
          <mxGeometry width="50" height="50" relative="1" as="geometry">
            <mxPoint x="495" y="366" as="sourcePoint" />
            <mxPoint x="465" y="280" as="targetPoint" />
          </mxGeometry>
        </mxCell>
      </root>
    </mxGraphModel>
  </diagram>
</mxfile>
